<mxfile host="app.diagrams.net" modified="2024-04-23T11:15:13.171Z" agent="Mozilla/5.0 (Macintosh; Intel Mac OS X 10_15_7) AppleWebKit/537.36 (KHTML, like Gecko) Chrome/120.0.0.0 YaBrowser/24.1.0.0 Safari/537.36" version="24.2.8" etag="mbCp_rhFiRLE08njEOhZ" type="github">
  <diagram name="Страница — 1" id="lsfQo_DIifuzqnVk9OEr">
    <mxGraphModel>
      <root>
        <mxCell id="0" />
        <mxCell id="1" parent="0" />
      </root>
    </mxGraphModel>
  </diagram>
</mxfile>
